<?xml version="1.0" encoding="UTF-8"?>
<svg xmlns="http://www.w3.org/2000/svg" xmlns:xlink="http://www.w3.org/1999/xlink"
  class="card-svg" data-rarity="legendary" viewBox="0 0 350 490"
  style="overflow:visible;width:100%;height:100%;display:block" role="img" aria-label="Legendary card template">
  <defs>
    <radialGradient id="bglegendary" cx="50%" cy="45%" r="70%">
      <stop offset="0%" stop-color="#080510"/>
      <stop offset="100%" stop-color="#040208"/>
    </radialGradient>
    <linearGradient id="gvlegendary" x1="0%" y1="0%" x2="0%" y2="100%">
      <stop offset="0%" stop-color="#FFF080"/>
      <stop offset="30%" stop-color="#FFD700"/>
      <stop offset="55%" stop-color="#FFF080"/>
      <stop offset="80%" stop-color="#FFD700"/>
      <stop offset="100%" stop-color="#FFF080"/>
    </linearGradient>
    <linearGradient id="ghlegendary" x1="0%" y1="0%" x2="100%" y2="0%">
      <stop offset="0%" stop-color="#FFF080"/>
      <stop offset="50%" stop-color="#FFD700"/>
      <stop offset="100%" stop-color="#FFF080"/>
    </linearGradient>
    <filter id="scflegendary" x="-100%" y="-100%" width="300%" height="300%">
      <feGaussianBlur in="SourceGraphic" stdDeviation="2.5" result="blur"/>
      <feMerge><feMergeNode in="blur"/><feMergeNode in="SourceGraphic"/></feMerge>
    </filter>
    <clipPath id="cclegendary"><rect x="0" y="0" width="350" height="490" rx="16"/></clipPath>
    <clipPath id="iclegendary"><rect x="20" y="80" width="310" height="330" rx="7"/></clipPath>
    <filter id="glwlegendary" x="-40%" y="-40%" width="180%" height="180%">
      <feGaussianBlur in="SourceGraphic" stdDeviation="9.333333333333334" result="blur"/>
      <feFlood flood-color="#FFA000" flood-opacity="0.7" result="col"/>
      <feComposite in="col" in2="blur" operator="in" result="sh"/>
      <feMerge><feMergeNode in="sh"/><feMergeNode in="SourceGraphic"/></feMerge>
    </filter></defs>
  <rect x="0" y="0" width="350" height="490" rx="16" fill="url(#bglegendary)"/>
    <g clip-path="url(#cclegendary)" opacity="0.07">
      <circle cx="175" cy="240" r="190" fill="none" stroke="#FFD700" stroke-width="0.5"/>
      <circle cx="175" cy="240" r="140" fill="none" stroke="#FFD700" stroke-width="0.4"/>
      <circle cx="175" cy="240" r="90" fill="none" stroke="#FFD700" stroke-width="0.3"/>
    </g><g clip-path="url(#cclegendary)" opacity="0.065"><line x1="-80" y1="0" x2="80" y2="490" stroke="#FFF080" stroke-width="0.5"/><line x1="-30" y1="0" x2="130" y2="490" stroke="#FFF080" stroke-width="0.5"/><line x1="20" y1="0" x2="180" y2="490" stroke="#FFF080" stroke-width="0.5"/><line x1="70" y1="0" x2="230" y2="490" stroke="#FFF080" stroke-width="0.5"/><line x1="120" y1="0" x2="280" y2="490" stroke="#FFF080" stroke-width="0.5"/><line x1="170" y1="0" x2="330" y2="490" stroke="#FFF080" stroke-width="0.5"/><line x1="220" y1="0" x2="380" y2="490" stroke="#FFF080" stroke-width="0.5"/><line x1="270" y1="0" x2="430" y2="490" stroke="#FFF080" stroke-width="0.5"/><line x1="320" y1="0" x2="480" y2="490" stroke="#FFF080" stroke-width="0.5"/><line x1="370" y1="0" x2="530" y2="490" stroke="#FFF080" stroke-width="0.5"/><line x1="420" y1="0" x2="580" y2="490" stroke="#FFF080" stroke-width="0.5"/></g><g clip-path="url(#cclegendary)"><circle cx="325.42432578484295" cy="435.67559990333393" r="1.8993523124649072" fill="#FFF080" opacity="0.6221954508915588"/><circle cx="267.6630295704399" cy="49.317103414650774" r="0.9817150408947782" fill="#FFF080" opacity="0.6118226586640958"/><circle cx="223.44333942746744" cy="52.87544393122516" r="1.0134272735071135" fill="#FFF080" opacity="0.7755050107929493"/><circle cx="174.30498190606158" cy="16.205759086224134" r="0.5161011146832607" fill="#FFF080" opacity="0.5019675363411806"/><circle cx="142.88990772001853" cy="73.64386175198888" r="0.6844485460373108" fill="#FFF080" opacity="0.6588289744395297"/><circle cx="216.27777297508146" cy="24.974478151125368" r="2.1847508944541914" fill="#FFF080" opacity="0.8476650873362814"/><circle cx="11.422624957776861" cy="487.28113416834276" r="1.900069070229074" fill="#FFF080" opacity="0.5197940940886838"/><circle cx="116.89146250027989" cy="448.38188098226965" r="2.3187070890475296" fill="#FFF080" opacity="0.6058828277400607"/><circle cx="30.828384220330918" cy="486.9960936158168" r="1.4602180835267062" fill="#FFF080" opacity="0.34900506332924125"/><circle cx="341.67721169906144" cy="73.28213439668616" r="2.0402197844872716" fill="#FFF080" opacity="0.8417333316572695"/><circle cx="335.64006071210315" cy="264.8223712055187" r="2.010141348923207" fill="#FFF080" opacity="0.7911434028012081"/><circle cx="5.206332919624401" cy="9.64241139283331" r="0.8166390492027858" fill="#FFF080" opacity="0.2084605193746029"/><circle cx="162.3599273229047" cy="432.9795446486969" r="0.870788706370513" fill="#FFF080" opacity="0.6107472259576753"/><circle cx="347.03845088588423" cy="416.8429259075947" r="0.40908772564434914" fill="#FFF080" opacity="0.6579863791670505"/><circle cx="329.13828992714116" cy="419.6648114281925" r="1.3523810388272977" fill="#FFF080" opacity="0.45865710257785397"/><circle cx="255.5508903901341" cy="469.07185691547056" r="1.5380716466846933" fill="#FFF080" opacity="0.3694777597778739"/><circle cx="205.8478690118136" cy="428.0683072834654" r="1.676819082442671" fill="#FFF080" opacity="0.2701408950108089"/><circle cx="97.10091975175601" cy="453.8306460275817" r="2.155284887563903" fill="#FFF080" opacity="0.48071210182993557"/><circle cx="336.7120660819637" cy="109.6728366174284" r="1.3960284680346375" fill="#FFF080" opacity="0.22149743552254222"/><circle cx="279.5815300445611" cy="56.97405395527312" r="1.6542999329289159" fill="#FFF080" opacity="0.5169676039142359"/><circle cx="133.03359051806183" cy="1.9230768145644106" r="0.88025050808792" fill="#FFF080" opacity="0.7187597018802989"/><circle cx="113.775548902413" cy="426.78793154675077" r="0.5333738400571747" fill="#FFF080" opacity="0.4796113023165163"/><circle cx="219.18655466979544" cy="14.047845298919128" r="1.6358729884290368" fill="#FFF080" opacity="0.23312940979230917"/><circle cx="247.43157949851593" cy="414.10823373174935" r="1.8897129038927232" fill="#FFF080" opacity="0.5174272400308837"/><circle cx="272.7747228087537" cy="32.55336311485735" r="0.7353056217019912" fill="#FFF080" opacity="0.6296136914786075"/><circle cx="285.9830011981103" cy="433.6870937950516" r="1.529388359535369" fill="#FFF080" opacity="0.3512296738324949"/><circle cx="348.07881367323716" cy="127.56981680140598" r="2.069932490625797" fill="#FFF080" opacity="0.6627268336284033"/><circle cx="59.528274393233005" cy="477.3435484607762" r="1.8094961100709042" fill="#FFF080" opacity="0.34191808475770813"/><circle cx="336.3572473761451" cy="91.4742675118805" r="1.327771013273741" fill="#FFF080" opacity="0.774360620452353"/><circle cx="274.01574642772175" cy="55.37138018073165" r="0.7380062607575383" fill="#FFF080" opacity="0.610105313025997"/><circle cx="27.83380116125045" cy="448.36612028713716" r="2.2807902281550922" fill="#FFF080" opacity="0.75669821924148"/><circle cx="63.980798146440065" cy="488.26337836129824" r="1.0529960952721011" fill="#FFF080" opacity="0.601013521654022"/><circle cx="25.333287445505448" cy="20.590486686560325" r="1.4087490672813145" fill="#FFF080" opacity="0.5767919069938217"/><circle cx="169.6109796877863" cy="7.647590501401282" r="0.9661130987136858" fill="#FFF080" opacity="0.34521058016798634"/><circle cx="160.36609442489862" cy="17.103331599282683" r="2.049127410702931" fill="#FFF080" opacity="0.6999773796833324"/><circle cx="253.7484601201868" cy="0.9707750917004887" r="1.5762735372103633" fill="#FFF080" opacity="0.7678457137433725"/><circle cx="25.526447185256984" cy="56.607138156032306" r="0.9548623985814629" fill="#FFF080" opacity="0.8020202447304656"/><circle cx="293.1454785898495" cy="22.623342330552987" r="2.135235758379531" fill="#FFF080" opacity="0.6390899527938019"/><circle cx="65.53591539723129" cy="17.625494891326525" r="1.359348630713066" fill="#FFF080" opacity="0.6367143378904074"/><circle cx="189.57646204726188" cy="15.831219464962487" r="1.6524945981131167" fill="#FFF080" opacity="0.21863489682509682"/><circle cx="53.75244974411544" cy="26.708757733140374" r="1.746775152516784" fill="#FFF080" opacity="0.629106835433413"/><circle cx="129.20483935886296" cy="460.45435576503223" r="0.9323384095463553" fill="#FFF080" opacity="0.3981930363501306"/><circle cx="256.373715438167" cy="489.871240498112" r="2.034188578274916" fill="#FFF080" opacity="0.7752992060546604"/><circle cx="233.3938875268359" cy="52.91655195000203" r="1.378069451797637" fill="#FFF080" opacity="0.6540374551892456"/><circle cx="190.72198222238512" cy="25.3299345371488" r="1.7200120549008715" fill="#FFF080" opacity="0.38316138852023873"/><circle cx="307.23960133107084" cy="7.122757200631895" r="2.2027337045568856" fill="#FFF080" opacity="0.6601618506250816"/><circle cx="20.770399208413437" cy="4.6574669338951935" r="2.389021792418498" fill="#FFF080" opacity="0.36922526718553855"/><circle cx="337.7558427895565" cy="362.41883027490985" r="1.0387986782920051" fill="#FFF080" opacity="0.5934362778047216"/><circle cx="49.743843134456256" cy="467.3396534105268" r="1.1380144746275618" fill="#FFF080" opacity="0.5502022619461059"/><circle cx="335.48386673737696" cy="352.65108264364244" r="1.3845185572635272" fill="#FFF080" opacity="0.49198689615514013"/></g><g clip-path="url(#cclegendary)" opacity="0.055"><line x1="175" y1="240" x2="625" y2="240" stroke="#FFF080" stroke-width="1.5"/><line x1="175" y1="240" x2="597.8616793536588" y2="393.9090644965509" stroke="#FFF080" stroke-width="1.5"/><line x1="175" y1="240" x2="519.7199994035401" y2="529.2544243589427" stroke="#FFF080" stroke-width="1.5"/><line x1="175" y1="240" x2="400.00000000000006" y2="629.7114317029973" stroke="#FFF080" stroke-width="1.5"/><line x1="175" y1="240" x2="253.1416799501187" y2="683.1634888554936" stroke="#FFF080" stroke-width="1.5"/><line x1="175" y1="240" x2="96.85832004988136" y2="683.1634888554936" stroke="#FFF080" stroke-width="1.5"/><line x1="175" y1="240" x2="-49.999999999999886" y2="629.7114317029974" stroke="#FFF080" stroke-width="1.5"/><line x1="175" y1="240" x2="-169.71999940354004" y2="529.2544243589427" stroke="#FFF080" stroke-width="1.5"/><line x1="175" y1="240" x2="-247.86167935365876" y2="393.90906449655097" stroke="#FFF080" stroke-width="1.5"/><line x1="175" y1="240" x2="-275" y2="240.00000000000006" stroke="#FFF080" stroke-width="1.5"/><line x1="175" y1="240" x2="-247.86167935365881" y2="86.09093550344912" stroke="#FFF080" stroke-width="1.5"/><line x1="175" y1="240" x2="-169.71999940354016" y2="-49.254424358942686" stroke="#FFF080" stroke-width="1.5"/><line x1="175" y1="240" x2="-50.0000000000002" y2="-149.71143170299734" stroke="#FFF080" stroke-width="1.5"/><line x1="175" y1="240" x2="96.85832004988136" y2="-203.1634888554936" stroke="#FFF080" stroke-width="1.5"/><line x1="175" y1="240" x2="253.1416799501185" y2="-203.16348885549365" stroke="#FFF080" stroke-width="1.5"/><line x1="175" y1="240" x2="400.00000000000006" y2="-149.71143170299734" stroke="#FFF080" stroke-width="1.5"/><line x1="175" y1="240" x2="519.71999940354" y2="-49.2544243589428" stroke="#FFF080" stroke-width="1.5"/><line x1="175" y1="240" x2="597.8616793536588" y2="86.09093550344912" stroke="#FFF080" stroke-width="1.5"/></g>
      <rect x="13" y="13" width="324" height="464" rx="9.5" fill="none" stroke="url(#gvlegendary)" stroke-width="26"/>
      <rect x="1" y="1" width="348" height="488" rx="15.5" fill="none" stroke="#FFF080" stroke-width="0.5" opacity="0.5"/>
      <rect x="27" y="27" width="296" height="436" rx="6.5" fill="none" stroke="#FFF080" stroke-width="0.75" opacity="0.6"/>
      <rect x="10" y="10" width="330" height="470" rx="18" fill="none" stroke="#FFD700" stroke-width="0.5" opacity="0.35"/>
      <rect x="31" y="31" width="288" height="428" rx="11" fill="none" stroke="#FFD700" stroke-width="0.5" opacity="0.35"/><rect x="13" y="13" width="324" height="464" rx="9.5" fill="none" stroke="#FFA000" stroke-width="15" filter="url(#glwlegendary)" opacity="0.55"/><g transform="translate(26,26) rotate(0)"><g>
    <path d="M 0,18 L 0,4 C 0,2 2,0 4,0 L 18,0" stroke="#FFD700" stroke-width="1.5" fill="none" opacity="0.9"/>
    <circle cx="0" cy="0" r="2.5" fill="#FFF080" opacity="0.8"/><g transform="translate(11,11)">
      <path d="M 0,-9 C 3,-5 3,0 0,3 C -3,0 -3,-5 0,-9 Z" fill="#FFD700" opacity="0.8"/>
      <path d="M 9,0 C 5,3 0,3 -3,0 C 0,-3 5,-3 9,0 Z" fill="#FFD700" opacity="0.8"/>
      <path d="M 0,9 C -3,5 -3,0 0,-3 C 3,0 3,5 0,9 Z" fill="#FFD700" opacity="0.8"/>
      <path d="M -9,0 C -5,-3 0,-3 3,0 C 0,3 -5,3 -9,0 Z" fill="#FFD700" opacity="0.8"/>
      <circle cx="0" cy="0" r="3" fill="#FFF080" opacity="0.9"/>
    </g><polygon points="5,-16.5 9.5,-10 5,-3.5 0.5,-10" fill="#FF8800" stroke="none" stroke-width="0" opacity="0.9"/><polygon points="5,-13 7,-10 5,-7 3,-10" fill="white" stroke="none" stroke-width="0" opacity="0.12"/><polygon points="-10,-1.5 -5.5,5 -10,11.5 -14.5,5" fill="#FF8800" stroke="#FFD700" stroke-width="0.5" opacity="0.9"/><polygon points="-10,2 -8,5 -10,8 -12,5" fill="white" stroke="none" stroke-width="0" opacity="0.12"/><path d="M 0,20 C -6,20 -14,12 -14,5 C -14,1 -10,-1 -6,1" stroke="#FFD700" stroke-width="0.8" fill="none" opacity="0.7"/>
    <path d="M 20,0 C 20,-6 12,-14 5,-14 C 1,-14 -1,-10 1,-6" stroke="#FFD700" stroke-width="0.8" fill="none" opacity="0.7"/><polygon points="20,15 21.34350288425444,18.65649711574556 25,20 21.34350288425444,21.34350288425444 20,25 18.65649711574556,21.34350288425444 15,20 18.65649711574556,18.65649711574556" fill="#FFF080" opacity="0.7"/><path d="M -6,1 C -12,6 -10,16 -4,18 C 2,20 6,16 4,10" stroke="#FFD700" stroke-width="0.75" fill="none" opacity="0.65"/>
    <path d="M 1,-6 C 6,-12 16,-10 18,-4 C 20,2 16,6 10,4" stroke="#FFD700" stroke-width="0.75" fill="none" opacity="0.65"/>
    <circle cx="8" cy="8" r="2" fill="#FFF080" opacity="0.45"/><polygon points="5,-28.5 10.5,-20 5,-11.5 -0.5,-20" fill="#FF8800" stroke="none" stroke-width="0" opacity="0.95"/><polygon points="5,-24 7.5,-20 5,-16 2.5,-20" fill="white" stroke="none" stroke-width="0" opacity="0.15"/><polygon points="-20,-3.5 -14.5,5 -20,13.5 -25.5,5" fill="#FF8800" stroke="#FFD700" stroke-width="0.5" opacity="0.95"/><polygon points="-20,1 -17.5,5 -20,9 -22.5,5" fill="white" stroke="none" stroke-width="0" opacity="0.15"/><path d="M -22,24 C -22,10 -10,0 0,0" stroke="#FFF080" stroke-width="0.5" fill="none" opacity="0.5"/>
    <path d="M 24,-22 C 10,-22 0,-10 0,0" stroke="#FFF080" stroke-width="0.5" fill="none" opacity="0.5"/><polygon points="24,17 25.56350877109798,21.84801479496264 30.657395614066075,21.836881039375367 26.529810333345107,24.82198520503736 28.11449676604731,29.663118960624633 24,26.66 19.88550323395269,29.663118960624633 21.470189666654893,24.82198520503736 17.342604385933925,21.83688103937537 22.43649122890202,21.84801479496264" fill="#FFF080" opacity="0.6"/><polygon points="2.4492935982947064e-16,-4 1.0748023074035524,-1.0748023074035522 4,0 1.0748023074035524,1.0748023074035522 2.4492935982947064e-16,4 -1.0748023074035522,1.0748023074035524 -4,4.898587196589413e-16 -1.0748023074035524,-1.0748023074035522" fill="#FFF080" opacity="0.4"/></g></g><g transform="translate(324,26) rotate(90)"><g>
    <path d="M 0,18 L 0,4 C 0,2 2,0 4,0 L 18,0" stroke="#FFD700" stroke-width="1.5" fill="none" opacity="0.9"/>
    <circle cx="0" cy="0" r="2.5" fill="#FFF080" opacity="0.8"/><g transform="translate(11,11)">
      <path d="M 0,-9 C 3,-5 3,0 0,3 C -3,0 -3,-5 0,-9 Z" fill="#FFD700" opacity="0.8"/>
      <path d="M 9,0 C 5,3 0,3 -3,0 C 0,-3 5,-3 9,0 Z" fill="#FFD700" opacity="0.8"/>
      <path d="M 0,9 C -3,5 -3,0 0,-3 C 3,0 3,5 0,9 Z" fill="#FFD700" opacity="0.8"/>
      <path d="M -9,0 C -5,-3 0,-3 3,0 C 0,3 -5,3 -9,0 Z" fill="#FFD700" opacity="0.8"/>
      <circle cx="0" cy="0" r="3" fill="#FFF080" opacity="0.9"/>
    </g><polygon points="5,-16.5 9.5,-10 5,-3.5 0.5,-10" fill="#FF8800" stroke="none" stroke-width="0" opacity="0.9"/><polygon points="5,-13 7,-10 5,-7 3,-10" fill="white" stroke="none" stroke-width="0" opacity="0.12"/><polygon points="-10,-1.5 -5.5,5 -10,11.5 -14.5,5" fill="#FF8800" stroke="#FFD700" stroke-width="0.5" opacity="0.9"/><polygon points="-10,2 -8,5 -10,8 -12,5" fill="white" stroke="none" stroke-width="0" opacity="0.12"/><path d="M 0,20 C -6,20 -14,12 -14,5 C -14,1 -10,-1 -6,1" stroke="#FFD700" stroke-width="0.8" fill="none" opacity="0.7"/>
    <path d="M 20,0 C 20,-6 12,-14 5,-14 C 1,-14 -1,-10 1,-6" stroke="#FFD700" stroke-width="0.8" fill="none" opacity="0.7"/><polygon points="20,15 21.34350288425444,18.65649711574556 25,20 21.34350288425444,21.34350288425444 20,25 18.65649711574556,21.34350288425444 15,20 18.65649711574556,18.65649711574556" fill="#FFF080" opacity="0.7"/><path d="M -6,1 C -12,6 -10,16 -4,18 C 2,20 6,16 4,10" stroke="#FFD700" stroke-width="0.75" fill="none" opacity="0.65"/>
    <path d="M 1,-6 C 6,-12 16,-10 18,-4 C 20,2 16,6 10,4" stroke="#FFD700" stroke-width="0.75" fill="none" opacity="0.65"/>
    <circle cx="8" cy="8" r="2" fill="#FFF080" opacity="0.45"/><polygon points="5,-28.5 10.5,-20 5,-11.5 -0.5,-20" fill="#FF8800" stroke="none" stroke-width="0" opacity="0.95"/><polygon points="5,-24 7.5,-20 5,-16 2.5,-20" fill="white" stroke="none" stroke-width="0" opacity="0.15"/><polygon points="-20,-3.5 -14.5,5 -20,13.5 -25.5,5" fill="#FF8800" stroke="#FFD700" stroke-width="0.5" opacity="0.95"/><polygon points="-20,1 -17.5,5 -20,9 -22.5,5" fill="white" stroke="none" stroke-width="0" opacity="0.15"/><path d="M -22,24 C -22,10 -10,0 0,0" stroke="#FFF080" stroke-width="0.5" fill="none" opacity="0.5"/>
    <path d="M 24,-22 C 10,-22 0,-10 0,0" stroke="#FFF080" stroke-width="0.5" fill="none" opacity="0.5"/><polygon points="24,17 25.56350877109798,21.84801479496264 30.657395614066075,21.836881039375367 26.529810333345107,24.82198520503736 28.11449676604731,29.663118960624633 24,26.66 19.88550323395269,29.663118960624633 21.470189666654893,24.82198520503736 17.342604385933925,21.83688103937537 22.43649122890202,21.84801479496264" fill="#FFF080" opacity="0.6"/><polygon points="2.4492935982947064e-16,-4 1.0748023074035524,-1.0748023074035522 4,0 1.0748023074035524,1.0748023074035522 2.4492935982947064e-16,4 -1.0748023074035522,1.0748023074035524 -4,4.898587196589413e-16 -1.0748023074035524,-1.0748023074035522" fill="#FFF080" opacity="0.4"/></g></g><g transform="translate(324,464) rotate(180)"><g>
    <path d="M 0,18 L 0,4 C 0,2 2,0 4,0 L 18,0" stroke="#FFD700" stroke-width="1.5" fill="none" opacity="0.9"/>
    <circle cx="0" cy="0" r="2.5" fill="#FFF080" opacity="0.8"/><g transform="translate(11,11)">
      <path d="M 0,-9 C 3,-5 3,0 0,3 C -3,0 -3,-5 0,-9 Z" fill="#FFD700" opacity="0.8"/>
      <path d="M 9,0 C 5,3 0,3 -3,0 C 0,-3 5,-3 9,0 Z" fill="#FFD700" opacity="0.8"/>
      <path d="M 0,9 C -3,5 -3,0 0,-3 C 3,0 3,5 0,9 Z" fill="#FFD700" opacity="0.8"/>
      <path d="M -9,0 C -5,-3 0,-3 3,0 C 0,3 -5,3 -9,0 Z" fill="#FFD700" opacity="0.8"/>
      <circle cx="0" cy="0" r="3" fill="#FFF080" opacity="0.9"/>
    </g><polygon points="5,-16.5 9.5,-10 5,-3.5 0.5,-10" fill="#FF8800" stroke="none" stroke-width="0" opacity="0.9"/><polygon points="5,-13 7,-10 5,-7 3,-10" fill="white" stroke="none" stroke-width="0" opacity="0.12"/><polygon points="-10,-1.5 -5.5,5 -10,11.5 -14.5,5" fill="#FF8800" stroke="#FFD700" stroke-width="0.5" opacity="0.9"/><polygon points="-10,2 -8,5 -10,8 -12,5" fill="white" stroke="none" stroke-width="0" opacity="0.12"/><path d="M 0,20 C -6,20 -14,12 -14,5 C -14,1 -10,-1 -6,1" stroke="#FFD700" stroke-width="0.8" fill="none" opacity="0.7"/>
    <path d="M 20,0 C 20,-6 12,-14 5,-14 C 1,-14 -1,-10 1,-6" stroke="#FFD700" stroke-width="0.8" fill="none" opacity="0.7"/><polygon points="20,15 21.34350288425444,18.65649711574556 25,20 21.34350288425444,21.34350288425444 20,25 18.65649711574556,21.34350288425444 15,20 18.65649711574556,18.65649711574556" fill="#FFF080" opacity="0.7"/><path d="M -6,1 C -12,6 -10,16 -4,18 C 2,20 6,16 4,10" stroke="#FFD700" stroke-width="0.75" fill="none" opacity="0.65"/>
    <path d="M 1,-6 C 6,-12 16,-10 18,-4 C 20,2 16,6 10,4" stroke="#FFD700" stroke-width="0.75" fill="none" opacity="0.65"/>
    <circle cx="8" cy="8" r="2" fill="#FFF080" opacity="0.45"/><polygon points="5,-28.5 10.5,-20 5,-11.5 -0.5,-20" fill="#FF8800" stroke="none" stroke-width="0" opacity="0.95"/><polygon points="5,-24 7.5,-20 5,-16 2.5,-20" fill="white" stroke="none" stroke-width="0" opacity="0.15"/><polygon points="-20,-3.5 -14.5,5 -20,13.5 -25.5,5" fill="#FF8800" stroke="#FFD700" stroke-width="0.5" opacity="0.95"/><polygon points="-20,1 -17.5,5 -20,9 -22.5,5" fill="white" stroke="none" stroke-width="0" opacity="0.15"/><path d="M -22,24 C -22,10 -10,0 0,0" stroke="#FFF080" stroke-width="0.5" fill="none" opacity="0.5"/>
    <path d="M 24,-22 C 10,-22 0,-10 0,0" stroke="#FFF080" stroke-width="0.5" fill="none" opacity="0.5"/><polygon points="24,17 25.56350877109798,21.84801479496264 30.657395614066075,21.836881039375367 26.529810333345107,24.82198520503736 28.11449676604731,29.663118960624633 24,26.66 19.88550323395269,29.663118960624633 21.470189666654893,24.82198520503736 17.342604385933925,21.83688103937537 22.43649122890202,21.84801479496264" fill="#FFF080" opacity="0.6"/><polygon points="2.4492935982947064e-16,-4 1.0748023074035524,-1.0748023074035522 4,0 1.0748023074035524,1.0748023074035522 2.4492935982947064e-16,4 -1.0748023074035522,1.0748023074035524 -4,4.898587196589413e-16 -1.0748023074035524,-1.0748023074035522" fill="#FFF080" opacity="0.4"/></g></g><g transform="translate(26,464) rotate(270)"><g>
    <path d="M 0,18 L 0,4 C 0,2 2,0 4,0 L 18,0" stroke="#FFD700" stroke-width="1.5" fill="none" opacity="0.9"/>
    <circle cx="0" cy="0" r="2.5" fill="#FFF080" opacity="0.8"/><g transform="translate(11,11)">
      <path d="M 0,-9 C 3,-5 3,0 0,3 C -3,0 -3,-5 0,-9 Z" fill="#FFD700" opacity="0.8"/>
      <path d="M 9,0 C 5,3 0,3 -3,0 C 0,-3 5,-3 9,0 Z" fill="#FFD700" opacity="0.8"/>
      <path d="M 0,9 C -3,5 -3,0 0,-3 C 3,0 3,5 0,9 Z" fill="#FFD700" opacity="0.8"/>
      <path d="M -9,0 C -5,-3 0,-3 3,0 C 0,3 -5,3 -9,0 Z" fill="#FFD700" opacity="0.8"/>
      <circle cx="0" cy="0" r="3" fill="#FFF080" opacity="0.9"/>
    </g><polygon points="5,-16.5 9.5,-10 5,-3.5 0.5,-10" fill="#FF8800" stroke="none" stroke-width="0" opacity="0.9"/><polygon points="5,-13 7,-10 5,-7 3,-10" fill="white" stroke="none" stroke-width="0" opacity="0.12"/><polygon points="-10,-1.5 -5.5,5 -10,11.5 -14.5,5" fill="#FF8800" stroke="#FFD700" stroke-width="0.5" opacity="0.9"/><polygon points="-10,2 -8,5 -10,8 -12,5" fill="white" stroke="none" stroke-width="0" opacity="0.12"/><path d="M 0,20 C -6,20 -14,12 -14,5 C -14,1 -10,-1 -6,1" stroke="#FFD700" stroke-width="0.8" fill="none" opacity="0.7"/>
    <path d="M 20,0 C 20,-6 12,-14 5,-14 C 1,-14 -1,-10 1,-6" stroke="#FFD700" stroke-width="0.8" fill="none" opacity="0.7"/><polygon points="20,15 21.34350288425444,18.65649711574556 25,20 21.34350288425444,21.34350288425444 20,25 18.65649711574556,21.34350288425444 15,20 18.65649711574556,18.65649711574556" fill="#FFF080" opacity="0.7"/><path d="M -6,1 C -12,6 -10,16 -4,18 C 2,20 6,16 4,10" stroke="#FFD700" stroke-width="0.75" fill="none" opacity="0.65"/>
    <path d="M 1,-6 C 6,-12 16,-10 18,-4 C 20,2 16,6 10,4" stroke="#FFD700" stroke-width="0.75" fill="none" opacity="0.65"/>
    <circle cx="8" cy="8" r="2" fill="#FFF080" opacity="0.45"/><polygon points="5,-28.5 10.5,-20 5,-11.5 -0.5,-20" fill="#FF8800" stroke="none" stroke-width="0" opacity="0.95"/><polygon points="5,-24 7.5,-20 5,-16 2.5,-20" fill="white" stroke="none" stroke-width="0" opacity="0.15"/><polygon points="-20,-3.5 -14.5,5 -20,13.5 -25.5,5" fill="#FF8800" stroke="#FFD700" stroke-width="0.5" opacity="0.95"/><polygon points="-20,1 -17.5,5 -20,9 -22.5,5" fill="white" stroke="none" stroke-width="0" opacity="0.15"/><path d="M -22,24 C -22,10 -10,0 0,0" stroke="#FFF080" stroke-width="0.5" fill="none" opacity="0.5"/>
    <path d="M 24,-22 C 10,-22 0,-10 0,0" stroke="#FFF080" stroke-width="0.5" fill="none" opacity="0.5"/><polygon points="24,17 25.56350877109798,21.84801479496264 30.657395614066075,21.836881039375367 26.529810333345107,24.82198520503736 28.11449676604731,29.663118960624633 24,26.66 19.88550323395269,29.663118960624633 21.470189666654893,24.82198520503736 17.342604385933925,21.83688103937537 22.43649122890202,21.84801479496264" fill="#FFF080" opacity="0.6"/><polygon points="2.4492935982947064e-16,-4 1.0748023074035524,-1.0748023074035522 4,0 1.0748023074035524,1.0748023074035522 2.4492935982947064e-16,4 -1.0748023074035522,1.0748023074035524 -4,4.898587196589413e-16 -1.0748023074035524,-1.0748023074035522" fill="#FFF080" opacity="0.4"/></g></g>
    <rect x="26" y="26" width="298" height="64" rx="3" fill="#040208" opacity="0.72"/>
    <rect x="29" y="29" width="292" height="58" rx="2.5" fill="none" stroke="url(#ghlegendary)" stroke-width="1"/>
    <rect x="35" y="39" width="280" height="32" rx="2" fill="#080510" opacity="0.8"/>
    <rect x="35" y="39" width="280" height="32" rx="2" fill="none" stroke="#FFD700" stroke-width="0.6" opacity="0.5"/>
    <path d="M 35,39 C 30,40 28,45 31,50 C 33,54 37,53 35,48" fill="#FFD700" opacity="0.42"/>
    <path d="M 315,39 C 320,40 322,45 319,50 C 317,54 313,53 315,48" fill="#FFD700" opacity="0.42"/>
    <text data-slot="name" class="card-princess-name" x="175" y="56" text-anchor="middle" dominant-baseline="middle" fill="#FFF080" opacity="0.45" font-family="Georgia, 'Times New Roman', serif" font-size="14" letter-spacing="2">NAME</text><polygon points="48,50 51.5,55 48,60 44.5,55" fill="#FFD700" stroke="none" stroke-width="0" opacity="0.7"/><polygon points="302,50 305.5,55 302,60 298.5,55" fill="#FFD700" stroke="none" stroke-width="0" opacity="0.7"/><polygon points="42,30 45,34 42,38 39,34" fill="#FF8800" stroke="none" stroke-width="0" opacity="0.8"/><polygon points="308,30 311,34 308,38 305,34" fill="#FF8800" stroke="none" stroke-width="0" opacity="0.8"/><polygon points="56,51 58.5,55 56,59 53.5,55" fill="#FF8800" stroke="none" stroke-width="0" opacity="0.7"/><polygon points="294,51 296.5,55 294,59 291.5,55" fill="#FF8800" stroke="none" stroke-width="0" opacity="0.7"/><g filter="url(#scflegendary)">
      <polygon points="175,23 182,32 175,41 168,32" fill="#FF8800" stroke="none" stroke-width="0" opacity="0.95"/>
      <polygon points="175,27.5 178.5,32 175,36.5 171.5,32" fill="white" stroke="none" stroke-width="0" opacity="0.12"/>
      <polygon points="175,28 176.07480230740356,30.92519769259645 179,32 176.07480230740356,33.07480230740355 175,36 173.92519769259644,33.07480230740355 171,32 173.92519769259644,30.92519769259645" fill="#FFF080" opacity="0.3"/>
    </g><polygon points="36,31 37.116791979355696,34.4628677106876 40.75528258147577,34.454915028125264 37.80700738096079,36.5871322893124 38.93892626146236,40.045084971874736 36,37.9 33.06107373853764,40.045084971874736 34.19299261903921,36.5871322893124 31.244717418524232,34.454915028125264 34.883208020644304,34.4628677106876" fill="#FFF080" opacity="0.6"/><polygon points="314,31 315.1167919793557,34.4628677106876 318.75528258147574,34.454915028125264 315.8070073809608,36.5871322893124 316.93892626146237,40.045084971874736 314,37.9 311.06107373853763,40.045084971874736 312.1929926190392,36.5871322893124 309.24471741852426,34.454915028125264 312.8832080206443,34.4628677106876" fill="#FFF080" opacity="0.6"/><g transform="translate(175,23)" filter="url(#scflegendary)">
      <path d="M -26,12 L -26,-2 L -17,-16 L -8,-2 L 0,-22 L 8,-2 L 17,-16 L 26,-2 L 26,12 Z" fill="#FFD700" stroke="#FFF080" stroke-width="0.75"/>
      <circle cx="-17" cy="-12" r="3.5" fill="#FF8800"/>
      <circle cx="0" cy="-18" r="4.5" fill="#FF8800"/>
      <circle cx="17" cy="-12" r="3.5" fill="#FF8800"/>
      <circle cx="-17" cy="-14" r="1" fill="white" opacity="0.25"/>
      <circle cx="0" cy="-20" r="1.2" fill="white" opacity="0.25"/>
      <circle cx="17" cy="-14" r="1" fill="white" opacity="0.25"/><circle cx="-24.5" cy="10" r="2.5" fill="#FFF080" opacity="0.85"/><circle cx="-17.5" cy="10" r="2.5" fill="#FFF080" opacity="0.85"/><circle cx="-10.5" cy="10" r="2.5" fill="#FFF080" opacity="0.85"/><circle cx="-3.5" cy="10" r="2.5" fill="#FFF080" opacity="0.85"/><circle cx="3.5" cy="10" r="2.5" fill="#FFF080" opacity="0.85"/><circle cx="10.5" cy="10" r="2.5" fill="#FFF080" opacity="0.85"/><circle cx="17.5" cy="10" r="2.5" fill="#FFF080" opacity="0.85"/><circle cx="24.5" cy="10" r="2.5" fill="#FFF080" opacity="0.85"/></g><g transform="translate(13,240)" opacity="0.75">
      <path d="M 0,-30 C -6,-20 -6,20 0,30" stroke="#FFD700" stroke-width="1" fill="none"/>
      <path d="M 0,0 C -9,-7 -15,-2 -13,6 C -11,14 -4,11 0,4" stroke="#FFD700" stroke-width="0.75" fill="#FFD700" fill-opacity="0.18"/>
      <path d="M 0,0 C -9,7 -15,2 -13,-6 C -11,-14 -4,-11 0,-4" stroke="#FFD700" stroke-width="0.75" fill="#FFD700" fill-opacity="0.18"/>
      <circle cx="0" cy="0" r="3" fill="#FFF080" opacity="0.8"/></g>
      <g transform="translate(337,240) scale(-1,1)" opacity="0.75">
      <path d="M 0,-30 C -6,-20 -6,20 0,30" stroke="#FFD700" stroke-width="1" fill="none"/>
      <path d="M 0,0 C -9,-7 -15,-2 -13,6 C -11,14 -4,11 0,4" stroke="#FFD700" stroke-width="0.75" fill="#FFD700" fill-opacity="0.18"/>
      <path d="M 0,0 C -9,7 -15,2 -13,-6 C -11,-14 -4,-11 0,-4" stroke="#FFD700" stroke-width="0.75" fill="#FFD700" fill-opacity="0.18"/>
      <circle cx="0" cy="0" r="3" fill="#FFF080" opacity="0.8"/></g><rect x="15" y="75" width="320" height="340" rx="11" fill="#FFA000" opacity="0.1" filter="url(#glwlegendary)"/>
    <rect x="20" y="80" width="310" height="330" rx="7" fill="#080510"/>
    <rect data-slot="portrait-bg" x="20" y="80" width="310" height="330" rx="7" fill="none" stroke="#FFD700" stroke-width="1" stroke-dasharray="6 5" opacity="0.35"/>
    <text x="175" y="245" text-anchor="middle" dominant-baseline="middle" fill="#FFF080" opacity="0.28" font-family="Georgia, serif" font-size="13" letter-spacing="1.5">PORTRAIT</text>
    <image data-slot="portrait" class="card-portrait" href="" x="20" y="80" width="310" height="330" preserveAspectRatio="xMidYMid slice" clip-path="url(#iclegendary)"/>
    <rect x="20" y="80" width="310" height="330" rx="7" fill="none" stroke="url(#gvlegendary)" stroke-width="2.5"/>
    <rect x="23" y="83" width="304" height="324" rx="5" fill="none" stroke="#FFF080" stroke-width="0.5" opacity="0.5"/><g transform="translate(30,90) scale(1,1)" opacity="0.75">
      <path d="M -7,0 C -7,-7 0,-7 0,0" stroke="#FFD700" stroke-width="0.85" fill="none"/>
      <path d="M 0,-7 C 7,-7 7,0 0,0" stroke="#FFD700" stroke-width="0.85" fill="none"/>
      <circle cx="0" cy="0" r="1.5" fill="#FFF080"/>
    </g><g transform="translate(320,90) scale(-1,1)" opacity="0.75">
      <path d="M -7,0 C -7,-7 0,-7 0,0" stroke="#FFD700" stroke-width="0.85" fill="none"/>
      <path d="M 0,-7 C 7,-7 7,0 0,0" stroke="#FFD700" stroke-width="0.85" fill="none"/>
      <circle cx="0" cy="0" r="1.5" fill="#FFF080"/>
    </g><g transform="translate(30,400) scale(1,-1)" opacity="0.75">
      <path d="M -7,0 C -7,-7 0,-7 0,0" stroke="#FFD700" stroke-width="0.85" fill="none"/>
      <path d="M 0,-7 C 7,-7 7,0 0,0" stroke="#FFD700" stroke-width="0.85" fill="none"/>
      <circle cx="0" cy="0" r="1.5" fill="#FFF080"/>
    </g><g transform="translate(320,400) scale(-1,-1)" opacity="0.75">
      <path d="M -7,0 C -7,-7 0,-7 0,0" stroke="#FFD700" stroke-width="0.85" fill="none"/>
      <path d="M 0,-7 C 7,-7 7,0 0,0" stroke="#FFD700" stroke-width="0.85" fill="none"/>
      <circle cx="0" cy="0" r="1.5" fill="#FFF080"/>
    </g>
    <rect x="26" y="416" width="298" height="44" rx="3" fill="#040208" opacity="0.72"/>
    <line x1="30" y1="422" x2="320" y2="422" stroke="url(#ghlegendary)" stroke-width="0.8"/>
    <line x1="30" y1="425" x2="320" y2="425" stroke="#FFF080" stroke-width="0.25" opacity="0.4"/>
    <g transform="translate(175,440)" opacity="0.85">
      <line x1="-141" y1="0" x2="-32" y2="0" stroke="url(#ghlegendary)" stroke-width="0.8"/>
      <line x1="32" y1="0" x2="141" y2="0" stroke="url(#ghlegendary)" stroke-width="0.8"/>
      <polygon points="5.51091059616309e-16,-9 1.7099999999999995,-2.96180688094278 7.794228634059947,-4.5 3.42,0 7.794228634059948,4.499999999999998 1.7099999999999995,2.96180688094278 5.51091059616309e-16,9 -1.7099999999999993,2.96180688094278 -7.794228634059946,4.500000000000003 -3.42,4.188292053083948e-16 -7.794228634059947,-4.500000000000001 -1.7100000000000015,-2.9618068809427798" fill="#FFD700" opacity="0.7"/>
      <polygon points="2.755455298081545e-16,-4.5 0.8549999999999998,-1.48090344047139 3.8971143170299736,-2.25 1.71,0 3.897114317029974,2.249999999999999 0.8549999999999998,1.48090344047139 2.755455298081545e-16,4.5 -0.8549999999999996,1.48090344047139 -3.897114317029973,2.2500000000000013 -1.71,2.094146026541974e-16 -3.8971143170299736,-2.2500000000000004 -0.8550000000000008,-1.4809034404713899" fill="#FFF080" opacity="0.5"/>
    </g><g filter="url(#scflegendary)">
        <polygon points="139,448 143,454 139,460 135,454" fill="#FF8800" stroke="none" stroke-width="0" opacity="0.88"/>
        <polygon points="139,449.5 141,452 139,454.5 137,452" fill="white" stroke="none" stroke-width="0" opacity="0.1"/>
      </g><g filter="url(#scflegendary)">
        <polygon points="157,448 161,454 157,460 153,454" fill="#FF8800" stroke="none" stroke-width="0" opacity="0.88"/>
        <polygon points="157,449.5 159,452 157,454.5 155,452" fill="white" stroke="none" stroke-width="0" opacity="0.1"/>
      </g><g filter="url(#scflegendary)">
        <polygon points="175,448 179,454 175,460 171,454" fill="#FF8800" stroke="none" stroke-width="0" opacity="0.88"/>
        <polygon points="175,449.5 177,452 175,454.5 173,452" fill="white" stroke="none" stroke-width="0" opacity="0.1"/>
      </g><g filter="url(#scflegendary)">
        <polygon points="193,448 197,454 193,460 189,454" fill="#FF8800" stroke="none" stroke-width="0" opacity="0.88"/>
        <polygon points="193,449.5 195,452 193,454.5 191,452" fill="white" stroke="none" stroke-width="0" opacity="0.1"/>
      </g><g filter="url(#scflegendary)">
        <polygon points="211,448 215,454 211,460 207,454" fill="#FF8800" stroke="none" stroke-width="0" opacity="0.88"/>
        <polygon points="211,449.5 213,452 211,454.5 209,452" fill="white" stroke="none" stroke-width="0" opacity="0.1"/>
      </g><polygon points="40,435.5 41.209152595828996,438.790847404171 44.5,440 41.209152595828996,441.209152595829 40,444.5 38.790847404171004,441.209152595829 35.5,440 38.790847404171004,438.790847404171" fill="#FFD700" opacity="0.55"/><polygon points="310,435.5 311.209152595829,438.790847404171 314.5,440 311.209152595829,441.209152595829 310,444.5 308.790847404171,441.209152595829 305.5,440 308.790847404171,438.790847404171" fill="#FFD700" opacity="0.55"/><line x1="30" y1="455" x2="320" y2="455" stroke="#FFD700" stroke-width="0.75" opacity="0.6"/>
    <g transform="translate(175,477)"><circle cx="-18" cy="0" r="2.5" fill="#FFB020" opacity="0.88"/><circle cx="-9" cy="0" r="2.5" fill="#FFB020" opacity="0.88"/><circle cx="0" cy="0" r="2.5" fill="#FFB020" opacity="0.88"/><circle cx="9" cy="0" r="2.5" fill="#FFB020" opacity="0.88"/><circle cx="18" cy="0" r="2.5" fill="#FFB020" opacity="0.88"/></g>
</svg>
