<?xml version="1.0" encoding="UTF-8"?>
<svg xmlns="http://www.w3.org/2000/svg" xmlns:xlink="http://www.w3.org/1999/xlink"
  class="card-svg" data-rarity="secretRare" viewBox="0 0 350 490"
  style="overflow:visible;width:100%;height:100%;display:block" role="img" aria-label="Secret Rare card template">
  <defs>
    <radialGradient id="bgsecretRare" cx="50%" cy="45%" r="70%">
      <stop offset="0%" stop-color="#0a0206"/>
      <stop offset="100%" stop-color="#040102"/>
    </radialGradient>
    <linearGradient id="gvsecretRare" x1="0%" y1="0%" x2="0%" y2="100%">
      <stop offset="0%" stop-color="#FFF080"/>
      <stop offset="30%" stop-color="#FFD700"/>
      <stop offset="55%" stop-color="#FFF080"/>
      <stop offset="80%" stop-color="#FFD700"/>
      <stop offset="100%" stop-color="#FFF080"/>
    </linearGradient>
    <linearGradient id="ghsecretRare" x1="0%" y1="0%" x2="100%" y2="0%">
      <stop offset="0%" stop-color="#FFF080"/>
      <stop offset="50%" stop-color="#FFD700"/>
      <stop offset="100%" stop-color="#FFF080"/>
    </linearGradient>
    <filter id="scfsecretRare" x="-100%" y="-100%" width="300%" height="300%">
      <feGaussianBlur in="SourceGraphic" stdDeviation="2.5" result="blur"/>
      <feMerge><feMergeNode in="blur"/><feMergeNode in="SourceGraphic"/></feMerge>
    </filter>
    <clipPath id="ccsecretRare"><rect x="0" y="0" width="350" height="490" rx="16"/></clipPath>
    <clipPath id="icsecretRare"><rect x="20" y="80" width="310" height="330" rx="7"/></clipPath>
    <filter id="glwsecretRare" x="-40%" y="-40%" width="180%" height="180%">
      <feGaussianBlur in="SourceGraphic" stdDeviation="12" result="blur"/>
      <feFlood flood-color="#C83862" flood-opacity="0.7" result="col"/>
      <feComposite in="col" in2="blur" operator="in" result="sh"/>
      <feMerge><feMergeNode in="sh"/><feMergeNode in="SourceGraphic"/></feMerge>
    </filter>
    <linearGradient id="holosecretRare" x1="0%" y1="0%" x2="100%" y2="100%">
      <stop offset="0%" stop-color="#FF0080" stop-opacity="0.22"/>
      <stop offset="14%" stop-color="#FF8000" stop-opacity="0.22"/>
      <stop offset="28%" stop-color="#FFD700" stop-opacity="0.22"/>
      <stop offset="43%" stop-color="#00FF60" stop-opacity="0.22"/>
      <stop offset="57%" stop-color="#0080FF" stop-opacity="0.22"/>
      <stop offset="71%" stop-color="#8000FF" stop-opacity="0.22"/>
      <stop offset="85%" stop-color="#FF00C0" stop-opacity="0.22"/>
      <stop offset="100%" stop-color="#FF0080" stop-opacity="0.22"/>
    </linearGradient></defs>
  <rect x="0" y="0" width="350" height="490" rx="16" fill="url(#bgsecretRare)"/>
    <g clip-path="url(#ccsecretRare)" opacity="0.07">
      <circle cx="175" cy="240" r="190" fill="none" stroke="#FFD700" stroke-width="0.5"/>
      <circle cx="175" cy="240" r="140" fill="none" stroke="#FFD700" stroke-width="0.4"/>
      <circle cx="175" cy="240" r="90" fill="none" stroke="#FFD700" stroke-width="0.3"/>
    </g><g clip-path="url(#ccsecretRare)" opacity="0.065"><line x1="-80" y1="0" x2="80" y2="490" stroke="#FFF080" stroke-width="0.5"/><line x1="-30" y1="0" x2="130" y2="490" stroke="#FFF080" stroke-width="0.5"/><line x1="20" y1="0" x2="180" y2="490" stroke="#FFF080" stroke-width="0.5"/><line x1="70" y1="0" x2="230" y2="490" stroke="#FFF080" stroke-width="0.5"/><line x1="120" y1="0" x2="280" y2="490" stroke="#FFF080" stroke-width="0.5"/><line x1="170" y1="0" x2="330" y2="490" stroke="#FFF080" stroke-width="0.5"/><line x1="220" y1="0" x2="380" y2="490" stroke="#FFF080" stroke-width="0.5"/><line x1="270" y1="0" x2="430" y2="490" stroke="#FFF080" stroke-width="0.5"/><line x1="320" y1="0" x2="480" y2="490" stroke="#FFF080" stroke-width="0.5"/><line x1="370" y1="0" x2="530" y2="490" stroke="#FFF080" stroke-width="0.5"/><line x1="420" y1="0" x2="580" y2="490" stroke="#FFF080" stroke-width="0.5"/></g><g clip-path="url(#ccsecretRare)"><circle cx="274.39182944181084" cy="455.59405609878013" r="2.0002141648787073" fill="#FFF080" opacity="0.6093064135606255"/><circle cx="174.4000794286876" cy="430.0447974531562" r="1.8896627391135552" fill="#FFF080" opacity="0.22491391590319837"/><circle cx="25.669302399001026" cy="32.676590814007795" r="0.7189035300019896" fill="#FFF080" opacity="0.7353999988112492"/><circle cx="330.78179846445437" cy="15.991674940887606" r="2.1847508944541914" fill="#FFF080" opacity="0.8476650873362814"/><circle cx="28.9387534809066" cy="43.159737908463285" r="1.900069070229074" fill="#FFF080" opacity="0.5197940940886838"/><circle cx="45.915244692358215" cy="424.8767891805619" r="1.0607132616190937" fill="#FFF080" opacity="0.4079165218325216"/><circle cx="135.06213078580913" cy="70.06258224677367" r="0.699094799294835" fill="#FFF080" opacity="0.5480876207926486"/><circle cx="199.2590454476158" cy="28.51126332370768" r="0.9383645058536786" fill="#FFF080" opacity="0.4475733165465499"/><circle cx="92.06014773917559" cy="478.348096378686" r="2.071843812756151" fill="#FFF080" opacity="0.23711370620803793"/><circle cx="328.1241480539393" cy="469.8960849969444" r="1.152058345460682" fill="#FFF080" opacity="0.7602468192952074"/><circle cx="55.01561850142025" cy="7.288866087474162" r="2.0402197844872716" fill="#FFF080" opacity="0.8417333316572695"/><circle cx="13.129091199971299" cy="30.36100035038544" r="1.109519656622433" fill="#FFF080" opacity="0.4222059138412078"/><circle cx="338.3470499797113" cy="82.81153388559687" r="0.870788706370513" fill="#FFF080" opacity="0.6107472259576753"/><circle cx="255.93081970064304" cy="485.8538312402379" r="1.8888253583339973" fill="#FFF080" opacity="0.42985335251432844"/><circle cx="208.04876998599866" cy="460.7936058979976" r="1.0784740979346679" fill="#FFF080" opacity="0.7591765239446886"/><circle cx="346.66808812917225" cy="138.697709184853" r="0.7645484024600592" fill="#FFF080" opacity="0.6802553314384567"/><circle cx="5.43912624452787" cy="404.03621562221815" r="1.4507667224592296" fill="#FFF080" opacity="0.6649371431502005"/><circle cx="86.36268009554442" cy="62.51258765114471" r="1.676819082442671" fill="#FFF080" opacity="0.2701408950108089"/><circle cx="191.7306675492" cy="471.3968925147492" r="2.155284887563903" fill="#FFF080" opacity="0.48071210182993557"/><circle cx="329.8591792292427" cy="425.1327608029851" r="1.3960284680346375" fill="#FFF080" opacity="0.22149743552254222"/><circle cx="168.21715943988238" cy="455.3825325687649" r="0.5333738400571747" fill="#FFF080" opacity="0.4796113023165163"/><circle cx="243.59192492738657" cy="430.47877515180517" r="0.5761621955447481" fill="#FFF080" opacity="0.8460152262250631"/><circle cx="108.87531056268926" cy="49.16436959749262" r="1.6964204637173679" fill="#FFF080" opacity="0.545698991831523"/><circle cx="294.06729839865875" cy="441.669757616437" r="0.6859697234562191" fill="#FFF080" opacity="0.5269015723828488"/><circle cx="155.98882608828717" cy="67.14795332576614" r="2.3524412097089225" fill="#FFF080" opacity="0.297210994607849"/><circle cx="289.6162528973946" cy="487.31033914253203" r="0.42975047382642517" fill="#FFF080" opacity="0.21279095388845237"/><circle cx="1.9346590062923497" cy="180.81354628375266" r="1.0695596763056527" fill="#FFF080" opacity="0.7137991216324735"/><circle cx="105.24498425374986" cy="470.90014632660314" r="1.8094961100709042" fill="#FFF080" opacity="0.34191808475770813"/><circle cx="267.70390183833115" cy="38.96732162575063" r="1.8133720830723177" fill="#FFF080" opacity="0.4794753749169104"/><circle cx="301.03078507490864" cy="453.11837758359616" r="2.3830768622050527" fill="#FFF080" opacity="0.7529549017141564"/><circle cx="226.14484473851917" cy="35.46660242370763" r="1.5860392099115415" fill="#FFF080" opacity="0.3270700781147753"/><circle cx="3.8542293070349842" cy="35.73702605935978" r="1.8602908022293376" fill="#FFF080" opacity="0.8222381775409304"/><circle cx="2.222851975989215" cy="320.75500228020246" r="0.9548623985814629" fill="#FFF080" opacity="0.8020202447304656"/><circle cx="95.82852300700324" cy="75.25342964176161" r="2.258704214566387" fill="#FFF080" opacity="0.6047794460551814"/><circle cx="11.898777528222126" cy="223.54153975313238" r="0.9054949232289801" fill="#FFF080" opacity="0.7139343948038004"/><circle cx="6.399332397631952" cy="116.37927928415593" r="2.1570562251094088" fill="#FFF080" opacity="0.7067301923278138"/><circle cx="241.008875769694" cy="430.1354418634992" r="1.378069451797637" fill="#FFF080" opacity="0.6540374551892456"/><circle cx="67.02274651211155" cy="433.194748501046" r="0.9833013733499684" fill="#FFF080" opacity="0.3482901049799694"/><circle cx="203.39027667068876" cy="29.078558891778812" r="0.6740732788806781" fill="#FFF080" opacity="0.5285039314241657"/><circle cx="345.45141876660637" cy="472.8581799053791" r="0.7661833331134403" fill="#FFF080" opacity="0.7190481607518451"/><circle cx="152.87539662567724" cy="24.238575955982924" r="2.389021792418498" fill="#FFF080" opacity="0.36922526718553855"/><circle cx="67.76094096530869" cy="69.64138038823876" r="1.0387986782920051" fill="#FFF080" opacity="0.5934362778047216"/><circle cx="311.9735836324253" cy="25.02275909508171" r="0.7401615679613315" fill="#FFF080" opacity="0.8332108295908256"/><circle cx="266.93111470594886" cy="469.67741343232774" r="1.7667519802693277" fill="#FFF080" opacity="0.5059335399651901"/><circle cx="251.31069561466575" cy="66.35371193959145" r="0.5590502923500026" fill="#FFF080" opacity="0.7947713840543658"/><circle cx="333.2053857466235" cy="456.2733881472923" r="2.249462765647331" fill="#FFF080" opacity="0.31397278012263996"/><circle cx="185.32793935792142" cy="477.6932410673908" r="0.9940046453033574" fill="#FFF080" opacity="0.5554486528486451"/><circle cx="295.2981345472381" cy="58.83539898102754" r="1.3692055982159217" fill="#FFF080" opacity="0.21014476291002213"/><circle cx="339.2365939562296" cy="57.11573293316178" r="1.316377682427992" fill="#FFF080" opacity="0.222688092937824"/><circle cx="68.68821151110751" cy="467.5095084474651" r="1.9886094998277257" fill="#FFF080" opacity="0.6275519107231957"/><circle cx="109.6579141993061" cy="32.755731119104894" r="0.9209001771690964" fill="#FFF080" opacity="0.6811769081719832"/><circle cx="1.4256535620006616" cy="180.8178219531328" r="1.7491004614188568" fill="#FFF080" opacity="0.4842595820513452"/><circle cx="9.610254175640875" cy="427.8653811494951" r="1.138313367764931" fill="#FFF080" opacity="0.8108067984638183"/><circle cx="7.333724885211268" cy="20.737669058071333" r="1.0312673438515048" fill="#FFF080" opacity="0.5775078391445276"/><circle cx="247.97381178459545" cy="56.14103024265205" r="0.8750174664659426" fill="#FFF080" opacity="0.3605942095158753"/><circle cx="102.28179877594812" cy="463.6123237271022" r="2.155654864748976" fill="#FFF080" opacity="0.209448555470226"/><circle cx="125.04923496780975" cy="43.24873335121083" r="2.168141830616514" fill="#FFF080" opacity="0.4360861928766099"/><circle cx="334.1910307168291" cy="52.24457543452445" r="0.4989329630856446" fill="#FFF080" opacity="0.5436336105398368"/><circle cx="15.292769607185619" cy="315.16945665520325" r="0.6842505321968929" fill="#FFF080" opacity="0.8199403565649845"/><circle cx="113.6100542740678" cy="34.771459667390445" r="1.2411998778756241" fill="#FFF080" opacity="0.4496479786877899"/><circle cx="30.362723090229338" cy="68.50188511300075" r="1.0462570101430173" fill="#FFF080" opacity="0.7590578964553061"/><circle cx="250.23161622593761" cy="481.17787511773713" r="0.6708314773044549" fill="#FFF080" opacity="0.7711165692384385"/><circle cx="250.62544751890528" cy="442.3637666992181" r="2.2623403597848664" fill="#FFF080" opacity="0.43950815612042793"/><circle cx="62.975644670950714" cy="75.40794596246997" r="0.6331254405435175" fill="#FFF080" opacity="0.7561730010755128"/><circle cx="189.85374533453978" cy="30.921580776339397" r="2.024774963398522" fill="#FFF080" opacity="0.39462038521469367"/><circle cx="53.8590999560256" cy="39.48256406372536" r="1.8709897622451535" fill="#FFF080" opacity="0.6666521785300574"/><circle cx="220.19182236535926" cy="457.53122761183477" r="0.5336968617106322" fill="#FFF080" opacity="0.29692904562998595"/><circle cx="336.748604557215" cy="77.9406998281047" r="1.5383071323361945" fill="#FFF080" opacity="0.429230179277306"/><circle cx="260.8303315995727" cy="447.1248184315846" r="0.7933609375899323" fill="#FFF080" opacity="0.6419973344691243"/><circle cx="247.68125106561456" cy="40.082408189045964" r="0.4846435471758014" fill="#FFF080" opacity="0.5373848491649369"/><circle cx="195.7046208321117" cy="415.02214692445705" r="1.8865783911864127" fill="#FFF080" opacity="0.6751898792696012"/><circle cx="72.38694117049818" cy="50.74063719075639" r="2.2922951988861313" fill="#FFF080" opacity="0.69434524548833"/><circle cx="201.4463277268078" cy="37.169721906084305" r="0.5765254422498401" fill="#FFF080" opacity="0.31339547867846707"/><circle cx="218.82508088765462" cy="418.3337678582029" r="1.0590547601936122" fill="#FFF080" opacity="0.2904542977415986"/><circle cx="12.125547601772269" cy="445.3455964749446" r="1.6864059455314417" fill="#FFF080" opacity="0.35481025404992583"/></g><g clip-path="url(#ccsecretRare)" opacity="0.055"><line x1="175" y1="240" x2="625" y2="240" stroke="#FFF080" stroke-width="1.5"/><line x1="175" y1="240" x2="597.8616793536588" y2="393.9090644965509" stroke="#FFF080" stroke-width="1.5"/><line x1="175" y1="240" x2="519.7199994035401" y2="529.2544243589427" stroke="#FFF080" stroke-width="1.5"/><line x1="175" y1="240" x2="400.00000000000006" y2="629.7114317029973" stroke="#FFF080" stroke-width="1.5"/><line x1="175" y1="240" x2="253.1416799501187" y2="683.1634888554936" stroke="#FFF080" stroke-width="1.5"/><line x1="175" y1="240" x2="96.85832004988136" y2="683.1634888554936" stroke="#FFF080" stroke-width="1.5"/><line x1="175" y1="240" x2="-49.999999999999886" y2="629.7114317029974" stroke="#FFF080" stroke-width="1.5"/><line x1="175" y1="240" x2="-169.71999940354004" y2="529.2544243589427" stroke="#FFF080" stroke-width="1.5"/><line x1="175" y1="240" x2="-247.86167935365876" y2="393.90906449655097" stroke="#FFF080" stroke-width="1.5"/><line x1="175" y1="240" x2="-275" y2="240.00000000000006" stroke="#FFF080" stroke-width="1.5"/><line x1="175" y1="240" x2="-247.86167935365881" y2="86.09093550344912" stroke="#FFF080" stroke-width="1.5"/><line x1="175" y1="240" x2="-169.71999940354016" y2="-49.254424358942686" stroke="#FFF080" stroke-width="1.5"/><line x1="175" y1="240" x2="-50.0000000000002" y2="-149.71143170299734" stroke="#FFF080" stroke-width="1.5"/><line x1="175" y1="240" x2="96.85832004988136" y2="-203.1634888554936" stroke="#FFF080" stroke-width="1.5"/><line x1="175" y1="240" x2="253.1416799501185" y2="-203.16348885549365" stroke="#FFF080" stroke-width="1.5"/><line x1="175" y1="240" x2="400.00000000000006" y2="-149.71143170299734" stroke="#FFF080" stroke-width="1.5"/><line x1="175" y1="240" x2="519.71999940354" y2="-49.2544243589428" stroke="#FFF080" stroke-width="1.5"/><line x1="175" y1="240" x2="597.8616793536588" y2="86.09093550344912" stroke="#FFF080" stroke-width="1.5"/></g>
      <rect x="15" y="15" width="320" height="460" rx="8.5" fill="none" stroke="url(#gvsecretRare)" stroke-width="30"/>
      <rect x="1" y="1" width="348" height="488" rx="15.5" fill="none" stroke="#FFF080" stroke-width="0.5" opacity="0.5"/>
      <rect x="31" y="31" width="288" height="428" rx="5.5" fill="none" stroke="#FFF080" stroke-width="0.75" opacity="0.6"/>
      <rect x="12" y="12" width="326" height="466" rx="18" fill="none" stroke="#FFD700" stroke-width="0.5" opacity="0.35"/>
      <rect x="35" y="35" width="280" height="420" rx="11" fill="none" stroke="#FFD700" stroke-width="0.5" opacity="0.35"/><rect x="15" y="15" width="320" height="460" rx="8.5" fill="none" stroke="#C83862" stroke-width="17" filter="url(#glwsecretRare)" opacity="0.55"/><g transform="translate(30,30) rotate(0)"><g>
    <path d="M 0,18 L 0,4 C 0,2 2,0 4,0 L 18,0" stroke="#FFD700" stroke-width="1.5" fill="none" opacity="0.9"/>
    <circle cx="0" cy="0" r="2.5" fill="#FFF080" opacity="0.8"/><g transform="translate(11,11)">
      <path d="M 0,-9 C 3,-5 3,0 0,3 C -3,0 -3,-5 0,-9 Z" fill="#FFD700" opacity="0.8"/>
      <path d="M 9,0 C 5,3 0,3 -3,0 C 0,-3 5,-3 9,0 Z" fill="#FFD700" opacity="0.8"/>
      <path d="M 0,9 C -3,5 -3,0 0,-3 C 3,0 3,5 0,9 Z" fill="#FFD700" opacity="0.8"/>
      <path d="M -9,0 C -5,-3 0,-3 3,0 C 0,3 -5,3 -9,0 Z" fill="#FFD700" opacity="0.8"/>
      <circle cx="0" cy="0" r="3" fill="#FFF080" opacity="0.9"/>
    </g><polygon points="5,-16.5 9.5,-10 5,-3.5 0.5,-10" fill="#A82850" stroke="none" stroke-width="0" opacity="0.9"/><polygon points="5,-13 7,-10 5,-7 3,-10" fill="white" stroke="none" stroke-width="0" opacity="0.12"/><polygon points="-10,-1.5 -5.5,5 -10,11.5 -14.5,5" fill="#A82850" stroke="#FFD700" stroke-width="0.5" opacity="0.9"/><polygon points="-10,2 -8,5 -10,8 -12,5" fill="white" stroke="none" stroke-width="0" opacity="0.12"/><path d="M 0,20 C -6,20 -14,12 -14,5 C -14,1 -10,-1 -6,1" stroke="#FFD700" stroke-width="0.8" fill="none" opacity="0.7"/>
    <path d="M 20,0 C 20,-6 12,-14 5,-14 C 1,-14 -1,-10 1,-6" stroke="#FFD700" stroke-width="0.8" fill="none" opacity="0.7"/><polygon points="20,15 21.34350288425444,18.65649711574556 25,20 21.34350288425444,21.34350288425444 20,25 18.65649711574556,21.34350288425444 15,20 18.65649711574556,18.65649711574556" fill="#FFF080" opacity="0.7"/><path d="M -6,1 C -12,6 -10,16 -4,18 C 2,20 6,16 4,10" stroke="#FFD700" stroke-width="0.75" fill="none" opacity="0.65"/>
    <path d="M 1,-6 C 6,-12 16,-10 18,-4 C 20,2 16,6 10,4" stroke="#FFD700" stroke-width="0.75" fill="none" opacity="0.65"/>
    <circle cx="8" cy="8" r="2" fill="#FFF080" opacity="0.45"/><polygon points="5,-28.5 10.5,-20 5,-11.5 -0.5,-20" fill="#A82850" stroke="none" stroke-width="0" opacity="0.95"/><polygon points="5,-24 7.5,-20 5,-16 2.5,-20" fill="white" stroke="none" stroke-width="0" opacity="0.15"/><polygon points="-20,-3.5 -14.5,5 -20,13.5 -25.5,5" fill="#A82850" stroke="#FFD700" stroke-width="0.5" opacity="0.95"/><polygon points="-20,1 -17.5,5 -20,9 -22.5,5" fill="white" stroke="none" stroke-width="0" opacity="0.15"/><path d="M -22,24 C -22,10 -10,0 0,0" stroke="#FFF080" stroke-width="0.5" fill="none" opacity="0.5"/>
    <path d="M 24,-22 C 10,-22 0,-10 0,0" stroke="#FFF080" stroke-width="0.5" fill="none" opacity="0.5"/><polygon points="24,17 25.56350877109798,21.84801479496264 30.657395614066075,21.836881039375367 26.529810333345107,24.82198520503736 28.11449676604731,29.663118960624633 24,26.66 19.88550323395269,29.663118960624633 21.470189666654893,24.82198520503736 17.342604385933925,21.83688103937537 22.43649122890202,21.84801479496264" fill="#FFF080" opacity="0.6"/><polygon points="2.4492935982947064e-16,-4 1.0748023074035524,-1.0748023074035522 4,0 1.0748023074035524,1.0748023074035522 2.4492935982947064e-16,4 -1.0748023074035522,1.0748023074035524 -4,4.898587196589413e-16 -1.0748023074035524,-1.0748023074035522" fill="#FFF080" opacity="0.4"/><polygon points="5,-40 11.5,-30 5,-20 -1.5,-30" fill="#6B1535" stroke="none" stroke-width="0" opacity="0.95"/><polygon points="5,-35 8,-30 5,-25 2,-30" fill="white" stroke="none" stroke-width="0" opacity="0.1"/><polygon points="-30,-5 -23.5,5 -30,15 -36.5,5" fill="#6B1535" stroke="none" stroke-width="0" opacity="0.95"/><polygon points="-30,0 -27,5 -30,10 -33,5" fill="white" stroke="none" stroke-width="0" opacity="0.1"/><polygon points="32,24 33.519999999999996,29.367282772495308 38.92820323027551,28 35.04,32 38.92820323027551,36 33.519999999999996,34.63271722750469 32,40 30.48,34.63271722750469 25.071796769724493,36 28.96,32 25.071796769724493,28 30.479999999999997,29.367282772495308" fill="#FFF080" opacity="0.5"/><circle cx="5" cy="-30" r="5" fill="white" opacity="0.05"/></g></g><g transform="translate(320,30) rotate(90)"><g>
    <path d="M 0,18 L 0,4 C 0,2 2,0 4,0 L 18,0" stroke="#FFD700" stroke-width="1.5" fill="none" opacity="0.9"/>
    <circle cx="0" cy="0" r="2.5" fill="#FFF080" opacity="0.8"/><g transform="translate(11,11)">
      <path d="M 0,-9 C 3,-5 3,0 0,3 C -3,0 -3,-5 0,-9 Z" fill="#FFD700" opacity="0.8"/>
      <path d="M 9,0 C 5,3 0,3 -3,0 C 0,-3 5,-3 9,0 Z" fill="#FFD700" opacity="0.8"/>
      <path d="M 0,9 C -3,5 -3,0 0,-3 C 3,0 3,5 0,9 Z" fill="#FFD700" opacity="0.8"/>
      <path d="M -9,0 C -5,-3 0,-3 3,0 C 0,3 -5,3 -9,0 Z" fill="#FFD700" opacity="0.8"/>
      <circle cx="0" cy="0" r="3" fill="#FFF080" opacity="0.9"/>
    </g><polygon points="5,-16.5 9.5,-10 5,-3.5 0.5,-10" fill="#A82850" stroke="none" stroke-width="0" opacity="0.9"/><polygon points="5,-13 7,-10 5,-7 3,-10" fill="white" stroke="none" stroke-width="0" opacity="0.12"/><polygon points="-10,-1.5 -5.5,5 -10,11.5 -14.5,5" fill="#A82850" stroke="#FFD700" stroke-width="0.5" opacity="0.9"/><polygon points="-10,2 -8,5 -10,8 -12,5" fill="white" stroke="none" stroke-width="0" opacity="0.12"/><path d="M 0,20 C -6,20 -14,12 -14,5 C -14,1 -10,-1 -6,1" stroke="#FFD700" stroke-width="0.8" fill="none" opacity="0.7"/>
    <path d="M 20,0 C 20,-6 12,-14 5,-14 C 1,-14 -1,-10 1,-6" stroke="#FFD700" stroke-width="0.8" fill="none" opacity="0.7"/><polygon points="20,15 21.34350288425444,18.65649711574556 25,20 21.34350288425444,21.34350288425444 20,25 18.65649711574556,21.34350288425444 15,20 18.65649711574556,18.65649711574556" fill="#FFF080" opacity="0.7"/><path d="M -6,1 C -12,6 -10,16 -4,18 C 2,20 6,16 4,10" stroke="#FFD700" stroke-width="0.75" fill="none" opacity="0.65"/>
    <path d="M 1,-6 C 6,-12 16,-10 18,-4 C 20,2 16,6 10,4" stroke="#FFD700" stroke-width="0.75" fill="none" opacity="0.65"/>
    <circle cx="8" cy="8" r="2" fill="#FFF080" opacity="0.45"/><polygon points="5,-28.5 10.5,-20 5,-11.5 -0.5,-20" fill="#A82850" stroke="none" stroke-width="0" opacity="0.95"/><polygon points="5,-24 7.5,-20 5,-16 2.5,-20" fill="white" stroke="none" stroke-width="0" opacity="0.15"/><polygon points="-20,-3.5 -14.5,5 -20,13.5 -25.5,5" fill="#A82850" stroke="#FFD700" stroke-width="0.5" opacity="0.95"/><polygon points="-20,1 -17.5,5 -20,9 -22.5,5" fill="white" stroke="none" stroke-width="0" opacity="0.15"/><path d="M -22,24 C -22,10 -10,0 0,0" stroke="#FFF080" stroke-width="0.5" fill="none" opacity="0.5"/>
    <path d="M 24,-22 C 10,-22 0,-10 0,0" stroke="#FFF080" stroke-width="0.5" fill="none" opacity="0.5"/><polygon points="24,17 25.56350877109798,21.84801479496264 30.657395614066075,21.836881039375367 26.529810333345107,24.82198520503736 28.11449676604731,29.663118960624633 24,26.66 19.88550323395269,29.663118960624633 21.470189666654893,24.82198520503736 17.342604385933925,21.83688103937537 22.43649122890202,21.84801479496264" fill="#FFF080" opacity="0.6"/><polygon points="2.4492935982947064e-16,-4 1.0748023074035524,-1.0748023074035522 4,0 1.0748023074035524,1.0748023074035522 2.4492935982947064e-16,4 -1.0748023074035522,1.0748023074035524 -4,4.898587196589413e-16 -1.0748023074035524,-1.0748023074035522" fill="#FFF080" opacity="0.4"/><polygon points="5,-40 11.5,-30 5,-20 -1.5,-30" fill="#6B1535" stroke="none" stroke-width="0" opacity="0.95"/><polygon points="5,-35 8,-30 5,-25 2,-30" fill="white" stroke="none" stroke-width="0" opacity="0.1"/><polygon points="-30,-5 -23.5,5 -30,15 -36.5,5" fill="#6B1535" stroke="none" stroke-width="0" opacity="0.95"/><polygon points="-30,0 -27,5 -30,10 -33,5" fill="white" stroke="none" stroke-width="0" opacity="0.1"/><polygon points="32,24 33.519999999999996,29.367282772495308 38.92820323027551,28 35.04,32 38.92820323027551,36 33.519999999999996,34.63271722750469 32,40 30.48,34.63271722750469 25.071796769724493,36 28.96,32 25.071796769724493,28 30.479999999999997,29.367282772495308" fill="#FFF080" opacity="0.5"/><circle cx="5" cy="-30" r="5" fill="white" opacity="0.05"/></g></g><g transform="translate(320,460) rotate(180)"><g>
    <path d="M 0,18 L 0,4 C 0,2 2,0 4,0 L 18,0" stroke="#FFD700" stroke-width="1.5" fill="none" opacity="0.9"/>
    <circle cx="0" cy="0" r="2.5" fill="#FFF080" opacity="0.8"/><g transform="translate(11,11)">
      <path d="M 0,-9 C 3,-5 3,0 0,3 C -3,0 -3,-5 0,-9 Z" fill="#FFD700" opacity="0.8"/>
      <path d="M 9,0 C 5,3 0,3 -3,0 C 0,-3 5,-3 9,0 Z" fill="#FFD700" opacity="0.8"/>
      <path d="M 0,9 C -3,5 -3,0 0,-3 C 3,0 3,5 0,9 Z" fill="#FFD700" opacity="0.8"/>
      <path d="M -9,0 C -5,-3 0,-3 3,0 C 0,3 -5,3 -9,0 Z" fill="#FFD700" opacity="0.8"/>
      <circle cx="0" cy="0" r="3" fill="#FFF080" opacity="0.9"/>
    </g><polygon points="5,-16.5 9.5,-10 5,-3.5 0.5,-10" fill="#A82850" stroke="none" stroke-width="0" opacity="0.9"/><polygon points="5,-13 7,-10 5,-7 3,-10" fill="white" stroke="none" stroke-width="0" opacity="0.12"/><polygon points="-10,-1.5 -5.5,5 -10,11.5 -14.5,5" fill="#A82850" stroke="#FFD700" stroke-width="0.5" opacity="0.9"/><polygon points="-10,2 -8,5 -10,8 -12,5" fill="white" stroke="none" stroke-width="0" opacity="0.12"/><path d="M 0,20 C -6,20 -14,12 -14,5 C -14,1 -10,-1 -6,1" stroke="#FFD700" stroke-width="0.8" fill="none" opacity="0.7"/>
    <path d="M 20,0 C 20,-6 12,-14 5,-14 C 1,-14 -1,-10 1,-6" stroke="#FFD700" stroke-width="0.8" fill="none" opacity="0.7"/><polygon points="20,15 21.34350288425444,18.65649711574556 25,20 21.34350288425444,21.34350288425444 20,25 18.65649711574556,21.34350288425444 15,20 18.65649711574556,18.65649711574556" fill="#FFF080" opacity="0.7"/><path d="M -6,1 C -12,6 -10,16 -4,18 C 2,20 6,16 4,10" stroke="#FFD700" stroke-width="0.75" fill="none" opacity="0.65"/>
    <path d="M 1,-6 C 6,-12 16,-10 18,-4 C 20,2 16,6 10,4" stroke="#FFD700" stroke-width="0.75" fill="none" opacity="0.65"/>
    <circle cx="8" cy="8" r="2" fill="#FFF080" opacity="0.45"/><polygon points="5,-28.5 10.5,-20 5,-11.5 -0.5,-20" fill="#A82850" stroke="none" stroke-width="0" opacity="0.95"/><polygon points="5,-24 7.5,-20 5,-16 2.5,-20" fill="white" stroke="none" stroke-width="0" opacity="0.15"/><polygon points="-20,-3.5 -14.5,5 -20,13.5 -25.5,5" fill="#A82850" stroke="#FFD700" stroke-width="0.5" opacity="0.95"/><polygon points="-20,1 -17.5,5 -20,9 -22.5,5" fill="white" stroke="none" stroke-width="0" opacity="0.15"/><path d="M -22,24 C -22,10 -10,0 0,0" stroke="#FFF080" stroke-width="0.5" fill="none" opacity="0.5"/>
    <path d="M 24,-22 C 10,-22 0,-10 0,0" stroke="#FFF080" stroke-width="0.5" fill="none" opacity="0.5"/><polygon points="24,17 25.56350877109798,21.84801479496264 30.657395614066075,21.836881039375367 26.529810333345107,24.82198520503736 28.11449676604731,29.663118960624633 24,26.66 19.88550323395269,29.663118960624633 21.470189666654893,24.82198520503736 17.342604385933925,21.83688103937537 22.43649122890202,21.84801479496264" fill="#FFF080" opacity="0.6"/><polygon points="2.4492935982947064e-16,-4 1.0748023074035524,-1.0748023074035522 4,0 1.0748023074035524,1.0748023074035522 2.4492935982947064e-16,4 -1.0748023074035522,1.0748023074035524 -4,4.898587196589413e-16 -1.0748023074035524,-1.0748023074035522" fill="#FFF080" opacity="0.4"/><polygon points="5,-40 11.5,-30 5,-20 -1.5,-30" fill="#6B1535" stroke="none" stroke-width="0" opacity="0.95"/><polygon points="5,-35 8,-30 5,-25 2,-30" fill="white" stroke="none" stroke-width="0" opacity="0.1"/><polygon points="-30,-5 -23.5,5 -30,15 -36.5,5" fill="#6B1535" stroke="none" stroke-width="0" opacity="0.95"/><polygon points="-30,0 -27,5 -30,10 -33,5" fill="white" stroke="none" stroke-width="0" opacity="0.1"/><polygon points="32,24 33.519999999999996,29.367282772495308 38.92820323027551,28 35.04,32 38.92820323027551,36 33.519999999999996,34.63271722750469 32,40 30.48,34.63271722750469 25.071796769724493,36 28.96,32 25.071796769724493,28 30.479999999999997,29.367282772495308" fill="#FFF080" opacity="0.5"/><circle cx="5" cy="-30" r="5" fill="white" opacity="0.05"/></g></g><g transform="translate(30,460) rotate(270)"><g>
    <path d="M 0,18 L 0,4 C 0,2 2,0 4,0 L 18,0" stroke="#FFD700" stroke-width="1.5" fill="none" opacity="0.9"/>
    <circle cx="0" cy="0" r="2.5" fill="#FFF080" opacity="0.8"/><g transform="translate(11,11)">
      <path d="M 0,-9 C 3,-5 3,0 0,3 C -3,0 -3,-5 0,-9 Z" fill="#FFD700" opacity="0.8"/>
      <path d="M 9,0 C 5,3 0,3 -3,0 C 0,-3 5,-3 9,0 Z" fill="#FFD700" opacity="0.8"/>
      <path d="M 0,9 C -3,5 -3,0 0,-3 C 3,0 3,5 0,9 Z" fill="#FFD700" opacity="0.8"/>
      <path d="M -9,0 C -5,-3 0,-3 3,0 C 0,3 -5,3 -9,0 Z" fill="#FFD700" opacity="0.8"/>
      <circle cx="0" cy="0" r="3" fill="#FFF080" opacity="0.9"/>
    </g><polygon points="5,-16.5 9.5,-10 5,-3.5 0.5,-10" fill="#A82850" stroke="none" stroke-width="0" opacity="0.9"/><polygon points="5,-13 7,-10 5,-7 3,-10" fill="white" stroke="none" stroke-width="0" opacity="0.12"/><polygon points="-10,-1.5 -5.5,5 -10,11.5 -14.5,5" fill="#A82850" stroke="#FFD700" stroke-width="0.5" opacity="0.9"/><polygon points="-10,2 -8,5 -10,8 -12,5" fill="white" stroke="none" stroke-width="0" opacity="0.12"/><path d="M 0,20 C -6,20 -14,12 -14,5 C -14,1 -10,-1 -6,1" stroke="#FFD700" stroke-width="0.8" fill="none" opacity="0.7"/>
    <path d="M 20,0 C 20,-6 12,-14 5,-14 C 1,-14 -1,-10 1,-6" stroke="#FFD700" stroke-width="0.8" fill="none" opacity="0.7"/><polygon points="20,15 21.34350288425444,18.65649711574556 25,20 21.34350288425444,21.34350288425444 20,25 18.65649711574556,21.34350288425444 15,20 18.65649711574556,18.65649711574556" fill="#FFF080" opacity="0.7"/><path d="M -6,1 C -12,6 -10,16 -4,18 C 2,20 6,16 4,10" stroke="#FFD700" stroke-width="0.75" fill="none" opacity="0.65"/>
    <path d="M 1,-6 C 6,-12 16,-10 18,-4 C 20,2 16,6 10,4" stroke="#FFD700" stroke-width="0.75" fill="none" opacity="0.65"/>
    <circle cx="8" cy="8" r="2" fill="#FFF080" opacity="0.45"/><polygon points="5,-28.5 10.5,-20 5,-11.5 -0.5,-20" fill="#A82850" stroke="none" stroke-width="0" opacity="0.95"/><polygon points="5,-24 7.5,-20 5,-16 2.5,-20" fill="white" stroke="none" stroke-width="0" opacity="0.15"/><polygon points="-20,-3.5 -14.5,5 -20,13.5 -25.5,5" fill="#A82850" stroke="#FFD700" stroke-width="0.5" opacity="0.95"/><polygon points="-20,1 -17.5,5 -20,9 -22.5,5" fill="white" stroke="none" stroke-width="0" opacity="0.15"/><path d="M -22,24 C -22,10 -10,0 0,0" stroke="#FFF080" stroke-width="0.5" fill="none" opacity="0.5"/>
    <path d="M 24,-22 C 10,-22 0,-10 0,0" stroke="#FFF080" stroke-width="0.5" fill="none" opacity="0.5"/><polygon points="24,17 25.56350877109798,21.84801479496264 30.657395614066075,21.836881039375367 26.529810333345107,24.82198520503736 28.11449676604731,29.663118960624633 24,26.66 19.88550323395269,29.663118960624633 21.470189666654893,24.82198520503736 17.342604385933925,21.83688103937537 22.43649122890202,21.84801479496264" fill="#FFF080" opacity="0.6"/><polygon points="2.4492935982947064e-16,-4 1.0748023074035524,-1.0748023074035522 4,0 1.0748023074035524,1.0748023074035522 2.4492935982947064e-16,4 -1.0748023074035522,1.0748023074035524 -4,4.898587196589413e-16 -1.0748023074035524,-1.0748023074035522" fill="#FFF080" opacity="0.4"/><polygon points="5,-40 11.5,-30 5,-20 -1.5,-30" fill="#6B1535" stroke="none" stroke-width="0" opacity="0.95"/><polygon points="5,-35 8,-30 5,-25 2,-30" fill="white" stroke="none" stroke-width="0" opacity="0.1"/><polygon points="-30,-5 -23.5,5 -30,15 -36.5,5" fill="#6B1535" stroke="none" stroke-width="0" opacity="0.95"/><polygon points="-30,0 -27,5 -30,10 -33,5" fill="white" stroke="none" stroke-width="0" opacity="0.1"/><polygon points="32,24 33.519999999999996,29.367282772495308 38.92820323027551,28 35.04,32 38.92820323027551,36 33.519999999999996,34.63271722750469 32,40 30.48,34.63271722750469 25.071796769724493,36 28.96,32 25.071796769724493,28 30.479999999999997,29.367282772495308" fill="#FFF080" opacity="0.5"/><circle cx="5" cy="-30" r="5" fill="white" opacity="0.05"/></g></g>
    <rect x="30" y="30" width="290" height="64" rx="3" fill="#040102" opacity="0.72"/>
    <rect x="33" y="33" width="284" height="58" rx="2.5" fill="none" stroke="url(#ghsecretRare)" stroke-width="1"/>
    <rect x="39" y="43" width="272" height="32" rx="2" fill="#0a0206" opacity="0.8"/>
    <rect x="39" y="43" width="272" height="32" rx="2" fill="none" stroke="#FFD700" stroke-width="0.6" opacity="0.5"/>
    <path d="M 39,43 C 34,44 32,49 35,54 C 37,58 41,57 39,52" fill="#FFD700" opacity="0.42"/>
    <path d="M 311,43 C 316,44 318,49 315,54 C 313,58 309,57 311,52" fill="#FFD700" opacity="0.42"/>
    <text data-slot="name" class="card-princess-name" x="175" y="60" text-anchor="middle" dominant-baseline="middle" fill="#FFF080" opacity="0.45" font-family="Georgia, 'Times New Roman', serif" font-size="14" letter-spacing="2">NAME</text><polygon points="52,54 55.5,59 52,64 48.5,59" fill="#FFD700" stroke="none" stroke-width="0" opacity="0.7"/><polygon points="298,54 301.5,59 298,64 294.5,59" fill="#FFD700" stroke="none" stroke-width="0" opacity="0.7"/><polygon points="46,34 49,38 46,42 43,38" fill="#A82850" stroke="none" stroke-width="0" opacity="0.8"/><polygon points="304,34 307,38 304,42 301,38" fill="#A82850" stroke="none" stroke-width="0" opacity="0.8"/><polygon points="60,55 62.5,59 60,63 57.5,59" fill="#A82850" stroke="none" stroke-width="0" opacity="0.7"/><polygon points="290,55 292.5,59 290,63 287.5,59" fill="#A82850" stroke="none" stroke-width="0" opacity="0.7"/><g filter="url(#scfsecretRare)">
      <polygon points="175,27 182,36 175,45 168,36" fill="#A82850" stroke="none" stroke-width="0" opacity="0.95"/>
      <polygon points="175,31.5 178.5,36 175,40.5 171.5,36" fill="white" stroke="none" stroke-width="0" opacity="0.12"/>
      <polygon points="175,32 176.07480230740356,34.92519769259645 179,36 176.07480230740356,37.07480230740355 175,40 173.92519769259644,37.07480230740355 171,36 173.92519769259644,34.92519769259645" fill="#FFF080" opacity="0.3"/>
    </g><polygon points="40,35 41.116791979355696,38.4628677106876 44.75528258147577,38.454915028125264 41.80700738096079,40.5871322893124 42.93892626146236,44.045084971874736 40,41.9 37.06107373853764,44.045084971874736 38.19299261903921,40.5871322893124 35.24471741852423,38.454915028125264 38.883208020644304,38.4628677106876" fill="#FFF080" opacity="0.6"/><polygon points="310,35 311.1167919793557,38.4628677106876 314.75528258147574,38.454915028125264 311.8070073809608,40.5871322893124 312.93892626146237,44.045084971874736 310,41.9 307.06107373853763,44.045084971874736 308.1929926190392,40.5871322893124 305.24471741852426,38.454915028125264 308.8832080206443,38.4628677106876" fill="#FFF080" opacity="0.6"/><g transform="translate(175,27)" filter="url(#scfsecretRare)">
      <path d="M -26,12 L -26,-2 L -17,-16 L -8,-2 L 0,-22 L 8,-2 L 17,-16 L 26,-2 L 26,12 Z" fill="#FFD700" stroke="#FFF080" stroke-width="0.75"/>
      <circle cx="-17" cy="-12" r="3.5" fill="#A82850"/>
      <circle cx="0" cy="-18" r="4.5" fill="#A82850"/>
      <circle cx="17" cy="-12" r="3.5" fill="#A82850"/>
      <circle cx="-17" cy="-14" r="1" fill="white" opacity="0.25"/>
      <circle cx="0" cy="-20" r="1.2" fill="white" opacity="0.25"/>
      <circle cx="17" cy="-14" r="1" fill="white" opacity="0.25"/><circle cx="-24.5" cy="10" r="2.5" fill="#FFF080" opacity="0.85"/><circle cx="-17.5" cy="10" r="2.5" fill="#FFF080" opacity="0.85"/><circle cx="-10.5" cy="10" r="2.5" fill="#FFF080" opacity="0.85"/><circle cx="-3.5" cy="10" r="2.5" fill="#FFF080" opacity="0.85"/><circle cx="3.5" cy="10" r="2.5" fill="#FFF080" opacity="0.85"/><circle cx="10.5" cy="10" r="2.5" fill="#FFF080" opacity="0.85"/><circle cx="17.5" cy="10" r="2.5" fill="#FFF080" opacity="0.85"/><circle cx="24.5" cy="10" r="2.5" fill="#FFF080" opacity="0.85"/></g><g transform="translate(15,240)" opacity="0.75">
      <path d="M 0,-30 C -6,-20 -6,20 0,30" stroke="#FFD700" stroke-width="1" fill="none"/>
      <path d="M 0,0 C -9,-7 -15,-2 -13,6 C -11,14 -4,11 0,4" stroke="#FFD700" stroke-width="0.75" fill="#FFD700" fill-opacity="0.18"/>
      <path d="M 0,0 C -9,7 -15,2 -13,-6 C -11,-14 -4,-11 0,-4" stroke="#FFD700" stroke-width="0.75" fill="#FFD700" fill-opacity="0.18"/>
      <circle cx="0" cy="0" r="3" fill="#FFF080" opacity="0.8"/></g>
      <g transform="translate(335,240) scale(-1,1)" opacity="0.75">
      <path d="M 0,-30 C -6,-20 -6,20 0,30" stroke="#FFD700" stroke-width="1" fill="none"/>
      <path d="M 0,0 C -9,-7 -15,-2 -13,6 C -11,14 -4,11 0,4" stroke="#FFD700" stroke-width="0.75" fill="#FFD700" fill-opacity="0.18"/>
      <path d="M 0,0 C -9,7 -15,2 -13,-6 C -11,-14 -4,-11 0,-4" stroke="#FFD700" stroke-width="0.75" fill="#FFD700" fill-opacity="0.18"/>
      <circle cx="0" cy="0" r="3" fill="#FFF080" opacity="0.8"/></g><rect x="15" y="75" width="320" height="340" rx="11" fill="#C83862" opacity="0.1" filter="url(#glwsecretRare)"/>
    <rect x="20" y="80" width="310" height="330" rx="7" fill="#0a0206"/>
    <rect data-slot="portrait-bg" x="20" y="80" width="310" height="330" rx="7" fill="none" stroke="#FFD700" stroke-width="1" stroke-dasharray="6 5" opacity="0.35"/>
    <text x="175" y="245" text-anchor="middle" dominant-baseline="middle" fill="#FFF080" opacity="0.28" font-family="Georgia, serif" font-size="13" letter-spacing="1.5">PORTRAIT</text>
    <image data-slot="portrait" class="card-portrait" href="" x="20" y="80" width="310" height="330" preserveAspectRatio="xMidYMid slice" clip-path="url(#icsecretRare)"/>
    <rect x="20" y="80" width="310" height="330" rx="7" fill="none" stroke="url(#gvsecretRare)" stroke-width="2.5"/>
    <rect x="23" y="83" width="304" height="324" rx="5" fill="none" stroke="#FFF080" stroke-width="0.5" opacity="0.5"/><g transform="translate(30,90) scale(1,1)" opacity="0.75">
      <path d="M -7,0 C -7,-7 0,-7 0,0" stroke="#FFD700" stroke-width="0.85" fill="none"/>
      <path d="M 0,-7 C 7,-7 7,0 0,0" stroke="#FFD700" stroke-width="0.85" fill="none"/>
      <circle cx="0" cy="0" r="1.5" fill="#FFF080"/>
    </g><g transform="translate(320,90) scale(-1,1)" opacity="0.75">
      <path d="M -7,0 C -7,-7 0,-7 0,0" stroke="#FFD700" stroke-width="0.85" fill="none"/>
      <path d="M 0,-7 C 7,-7 7,0 0,0" stroke="#FFD700" stroke-width="0.85" fill="none"/>
      <circle cx="0" cy="0" r="1.5" fill="#FFF080"/>
    </g><g transform="translate(30,400) scale(1,-1)" opacity="0.75">
      <path d="M -7,0 C -7,-7 0,-7 0,0" stroke="#FFD700" stroke-width="0.85" fill="none"/>
      <path d="M 0,-7 C 7,-7 7,0 0,0" stroke="#FFD700" stroke-width="0.85" fill="none"/>
      <circle cx="0" cy="0" r="1.5" fill="#FFF080"/>
    </g><g transform="translate(320,400) scale(-1,-1)" opacity="0.75">
      <path d="M -7,0 C -7,-7 0,-7 0,0" stroke="#FFD700" stroke-width="0.85" fill="none"/>
      <path d="M 0,-7 C 7,-7 7,0 0,0" stroke="#FFD700" stroke-width="0.85" fill="none"/>
      <circle cx="0" cy="0" r="1.5" fill="#FFF080"/>
    </g>
    <rect x="30" y="416" width="290" height="40" rx="3" fill="#040102" opacity="0.72"/>
    <line x1="34" y1="422" x2="316" y2="422" stroke="url(#ghsecretRare)" stroke-width="0.8"/>
    <line x1="34" y1="425" x2="316" y2="425" stroke="#FFF080" stroke-width="0.25" opacity="0.4"/>
    <g transform="translate(175,438)" opacity="0.85">
      <line x1="-137" y1="0" x2="-32" y2="0" stroke="url(#ghsecretRare)" stroke-width="0.8"/>
      <line x1="32" y1="0" x2="137" y2="0" stroke="url(#ghsecretRare)" stroke-width="0.8"/>
      <polygon points="5.51091059616309e-16,-9 1.7099999999999995,-2.96180688094278 7.794228634059947,-4.5 3.42,0 7.794228634059948,4.499999999999998 1.7099999999999995,2.96180688094278 5.51091059616309e-16,9 -1.7099999999999993,2.96180688094278 -7.794228634059946,4.500000000000003 -3.42,4.188292053083948e-16 -7.794228634059947,-4.500000000000001 -1.7100000000000015,-2.9618068809427798" fill="#FFD700" opacity="0.7"/>
      <polygon points="2.755455298081545e-16,-4.5 0.8549999999999998,-1.48090344047139 3.8971143170299736,-2.25 1.71,0 3.897114317029974,2.249999999999999 0.8549999999999998,1.48090344047139 2.755455298081545e-16,4.5 -0.8549999999999996,1.48090344047139 -3.897114317029973,2.2500000000000013 -1.71,2.094146026541974e-16 -3.8971143170299736,-2.2500000000000004 -0.8550000000000008,-1.4809034404713899" fill="#FFF080" opacity="0.5"/>
    </g><g filter="url(#scfsecretRare)">
        <polygon points="121,446 125,452 121,458 117,452" fill="#A82850" stroke="none" stroke-width="0" opacity="0.88"/>
        <polygon points="121,447.5 123,450 121,452.5 119,450" fill="white" stroke="none" stroke-width="0" opacity="0.1"/>
      </g><g filter="url(#scfsecretRare)">
        <polygon points="139,446 143,452 139,458 135,452" fill="#A82850" stroke="none" stroke-width="0" opacity="0.88"/>
        <polygon points="139,447.5 141,450 139,452.5 137,450" fill="white" stroke="none" stroke-width="0" opacity="0.1"/>
      </g><g filter="url(#scfsecretRare)">
        <polygon points="157,446 161,452 157,458 153,452" fill="#A82850" stroke="none" stroke-width="0" opacity="0.88"/>
        <polygon points="157,447.5 159,450 157,452.5 155,450" fill="white" stroke="none" stroke-width="0" opacity="0.1"/>
      </g><g filter="url(#scfsecretRare)">
        <polygon points="175,446 179,452 175,458 171,452" fill="#A82850" stroke="none" stroke-width="0" opacity="0.88"/>
        <polygon points="175,447.5 177,450 175,452.5 173,450" fill="white" stroke="none" stroke-width="0" opacity="0.1"/>
      </g><g filter="url(#scfsecretRare)">
        <polygon points="193,446 197,452 193,458 189,452" fill="#A82850" stroke="none" stroke-width="0" opacity="0.88"/>
        <polygon points="193,447.5 195,450 193,452.5 191,450" fill="white" stroke="none" stroke-width="0" opacity="0.1"/>
      </g><g filter="url(#scfsecretRare)">
        <polygon points="211,446 215,452 211,458 207,452" fill="#A82850" stroke="none" stroke-width="0" opacity="0.88"/>
        <polygon points="211,447.5 213,450 211,452.5 209,450" fill="white" stroke="none" stroke-width="0" opacity="0.1"/>
      </g><g filter="url(#scfsecretRare)">
        <polygon points="229,446 233,452 229,458 225,452" fill="#A82850" stroke="none" stroke-width="0" opacity="0.88"/>
        <polygon points="229,447.5 231,450 229,452.5 227,450" fill="white" stroke="none" stroke-width="0" opacity="0.1"/>
      </g><polygon points="44,433.5 45.209152595828996,436.790847404171 48.5,438 45.209152595828996,439.209152595829 44,442.5 42.790847404171004,439.209152595829 39.5,438 42.790847404171004,436.790847404171" fill="#FFD700" opacity="0.55"/><polygon points="306,433.5 307.209152595829,436.790847404171 310.5,438 307.209152595829,439.209152595829 306,442.5 304.790847404171,439.209152595829 301.5,438 304.790847404171,436.790847404171" fill="#FFD700" opacity="0.55"/><line x1="34" y1="451" x2="316" y2="451" stroke="#FFD700" stroke-width="0.75" opacity="0.6"/>
    <g transform="translate(175,475)"><circle cx="-22.5" cy="0" r="2.5" fill="#D4567A" opacity="0.88"/><circle cx="-13.5" cy="0" r="2.5" fill="#D4567A" opacity="0.88"/><circle cx="-4.5" cy="0" r="2.5" fill="#D4567A" opacity="0.88"/><circle cx="4.5" cy="0" r="2.5" fill="#D4567A" opacity="0.88"/><circle cx="13.5" cy="0" r="2.5" fill="#D4567A" opacity="0.88"/><circle cx="22.5" cy="0" r="2.5" fill="#D4567A" opacity="0.88"/></g><g clip-path="url(#ccsecretRare)">
      <rect x="0" y="0" width="350" height="490" rx="16" fill="url(#holosecretRare)" class="holo-layer" style="mix-blend-mode:screen"/>
    </g>
</svg>
